<?xml version="1.0" encoding="utf-8"?>
<!-- Generator: Adobe Illustrator 23.0.3, SVG Export Plug-In . SVG Version: 6.00 Build 0)  -->
<svg version="1.1" id="Layer_1" xmlns="http://www.w3.org/2000/svg" xmlns:xlink="http://www.w3.org/1999/xlink" x="0px" y="0px"
	 viewBox="0 0 77.6 48" style="enable-background:new 0 0 77.6 48;" xml:space="preserve">
<style type="text/css">
	.st0{fill:#FFFFFF;}
	.st1{fill-rule:evenodd;clip-rule:evenodd;fill:#EE3131;}
</style>
<g>
	<g>
		<path class="st0" d="M77.5,23c-1.4-4-15.1-5.7-18.9-5.8l-3.7,0c0-2.5,1.3-5.7,2.2-8.1c0.7-1.8,1-2.8,1-3.4C58.2,2,43.5,0,35.6,0
			c-9.4,0-13.8,1.2-14,3.7c-0.1,1.5-2,9.3-2.6,11.5C16.6,15.6-0.7,19,0,30.8C0.4,36.6,6.6,44,17.8,46.8c0,0,4.3,1,4.7,0.9l4.4,0.3
			c0.1,0,0.2-0.1,0.3-0.1h0c0.3,0,0.6,0,0.9,0l4.3-0.2c0,0,0,0,0-0.1c2.7-0.3,5.8-0.9,9.1-1.8c-0.2,0.1,0.5-0.2,0.5-0.2
			c9.3-2.7,20.8-8.4,34.2-19.5C77.7,24.9,77.7,23.8,77.5,23"/>
		<path d="M58.6,17.9l-4.3,0C54,13.7,57.5,7.2,57.5,5.7c0-2.6-11.9-5-21.9-5S22.4,2,22.3,3.7c-0.1,1.7-2.4,10.9-2.8,12.1l-0.2,0
			c0,0-19.5,3-18.7,15c0.8,12.1,29.5,32.4,75-5.2C81.5,20.9,64.5,18.1,58.6,17.9"/>
		<path class="st0" d="M24.3,4.8c0,0,2.4,8.2,4.7,9.1c0,0,20.7-7.5,24.9-7.8c0,0-2.5-1.2-24.8,6.5C29.2,12.6,27.6,12.5,24.3,4.8"/>
		<path class="st1" d="M30.8,18c1.9,6,9.3,6.5,10.3-4C37.7,17.3,34,18,30.8,18"/>
		<path class="st1" d="M26.7,17.2C26.7,17.2,26.7,17.2,26.7,17.2c-1.5,2.5-3.1,3.1-4.1,2.1c-1.1-1.1-1.5-4.2-0.1-9c0,0,0,0,0,0
			c0.4,1.5,1.1,2.9,1.9,4.2C25,15.5,25.8,16.4,26.7,17.2"/>
		<path class="st0" d="M18.6,22.4L18,26.1c5,9.7,25.5,8.2,37.3-3.1L55,22.6C37.8,32.9,22.6,26.9,18.6,22.4"/>
	</g>
</g>
</svg>
