<?xml version="1.0" encoding="utf-8"?>
<!-- Generator: Adobe Illustrator 23.0.3, SVG Export Plug-In . SVG Version: 6.00 Build 0)  -->
<svg version="1.1" id="Layer_1" xmlns="http://www.w3.org/2000/svg" xmlns:xlink="http://www.w3.org/1999/xlink" x="0px" y="0px"
	 viewBox="0 0 463.2 164.3" style="enable-background:new 0 0 463.2 164.3;" xml:space="preserve">
<style type="text/css">
	.st0{filter:url(#Adobe_OpacityMaskFilter);}
	.st1{clip-path:url(#SVGID_3_);fill:url(#SVGID_4_);}
	.st2{mask:url(#SVGID_1_);}
	.st3{fill:url(#SVGID_5_);}
	.st4{filter:url(#Adobe_OpacityMaskFilter_1_);}
	.st5{clip-path:url(#SVGID_8_);fill:url(#SVGID_9_);}
	.st6{mask:url(#SVGID_6_);}
	.st7{fill:url(#SVGID_10_);}
	.st8{filter:url(#Adobe_OpacityMaskFilter_2_);}
	.st9{clip-path:url(#SVGID_13_);fill:url(#SVGID_14_);}
	.st10{mask:url(#SVGID_11_);}
	.st11{fill:url(#SVGID_15_);}
	.st12{filter:url(#Adobe_OpacityMaskFilter_3_);}
	.st13{clip-path:url(#SVGID_18_);fill:url(#SVGID_19_);}
	.st14{mask:url(#SVGID_16_);}
	.st15{fill:url(#SVGID_20_);}
	.st16{filter:url(#Adobe_OpacityMaskFilter_4_);}
	.st17{clip-path:url(#SVGID_23_);fill:url(#SVGID_24_);}
	.st18{mask:url(#SVGID_21_);}
	.st19{fill:url(#SVGID_25_);}
</style>
<g>
	<g>
		<defs>
			<filter id="Adobe_OpacityMaskFilter" filterUnits="userSpaceOnUse" x="179" y="149.1" width="275.5" height="2">
				<feColorMatrix  type="matrix" values="1 0 0 0 0  0 1 0 0 0  0 0 1 0 0  0 0 0 1 0"/>
			</filter>
		</defs>
		<mask maskUnits="userSpaceOnUse" x="179" y="149.1" width="275.5" height="2" id="SVGID_1_">
			<g class="st0">
				<g>
					<defs>
						<rect id="SVGID_2_" x="170.5" y="142" width="292" height="11"/>
					</defs>
					<clipPath id="SVGID_3_">
						<use xlink:href="#SVGID_2_"  style="overflow:visible;"/>
					</clipPath>
					
						<linearGradient id="SVGID_4_" gradientUnits="userSpaceOnUse" x1="-15.1508" y1="186.6087" x2="-14.1508" y2="186.6087" gradientTransform="matrix(275.455 0 0 -275.455 4352.334 51552.3906)">
						<stop  offset="0" style="stop-color:#FFFFFF"/>
						<stop  offset="0.25" style="stop-color:#FFFFFF"/>
						<stop  offset="0.5" style="stop-color:#FFFFFF"/>
						<stop  offset="0.75" style="stop-color:#FFFFFF"/>
						<stop  offset="0.9903" style="stop-color:#FFFFFF"/>
						<stop  offset="1" style="stop-color:#FFFFFF"/>
					</linearGradient>
					<polyline class="st1" points="179,149.1 454.4,149.1 454.4,151.1 179,151.1 					"/>
				</g>
			</g>
		</mask>
		<g class="st2">
			<g>
				
					<linearGradient id="SVGID_5_" gradientUnits="userSpaceOnUse" x1="-15.1508" y1="186.6087" x2="-14.1508" y2="186.6087" gradientTransform="matrix(275.455 0 0 -275.455 4352.334 51552.3906)">
					<stop  offset="0" style="stop-color:#C1912E"/>
					<stop  offset="6.261542e-02" style="stop-color:#C2922F"/>
					<stop  offset="0.1131" style="stop-color:#C59835"/>
					<stop  offset="0.1594" style="stop-color:#CBA142"/>
					<stop  offset="0.2031" style="stop-color:#D4AF56"/>
					<stop  offset="0.2447" style="stop-color:#E1C371"/>
					<stop  offset="0.25" style="stop-color:#E3C675"/>
					<stop  offset="0.3221" style="stop-color:#E4C773"/>
					<stop  offset="0.3794" style="stop-color:#E8C86B"/>
					<stop  offset="0.4316" style="stop-color:#EEC95B"/>
					<stop  offset="0.4804" style="stop-color:#F6CC43"/>
					<stop  offset="0.5" style="stop-color:#FACD34"/>
					<stop  offset="0.5266" style="stop-color:#F9D152"/>
					<stop  offset="0.5647" style="stop-color:#F8D76F"/>
					<stop  offset="0.6047" style="stop-color:#F6DB83"/>
					<stop  offset="0.6471" style="stop-color:#F5DE90"/>
					<stop  offset="0.6931" style="stop-color:#F5E098"/>
					<stop  offset="0.75" style="stop-color:#F5E09B"/>
					<stop  offset="0.7632" style="stop-color:#EFD890"/>
					<stop  offset="0.8019" style="stop-color:#E2C476"/>
					<stop  offset="0.8426" style="stop-color:#D8B562"/>
					<stop  offset="0.8855" style="stop-color:#D1AB54"/>
					<stop  offset="0.9323" style="stop-color:#CDA64C"/>
					<stop  offset="0.9903" style="stop-color:#CCA449"/>
					<stop  offset="1" style="stop-color:#CCA449"/>
				</linearGradient>
				<polyline class="st3" points="179,149.1 454.4,149.1 454.4,151.1 179,151.1 				"/>
			</g>
		</g>
		<defs>
			<filter id="Adobe_OpacityMaskFilter_1_" filterUnits="userSpaceOnUse" x="239.6" y="45.3" width="214.8" height="2">
				<feColorMatrix  type="matrix" values="1 0 0 0 0  0 1 0 0 0  0 0 1 0 0  0 0 0 1 0"/>
			</filter>
		</defs>
		<mask maskUnits="userSpaceOnUse" x="239.6" y="45.3" width="214.8" height="2" id="SVGID_6_">
			<g class="st4">
				<g>
					<defs>
						<rect id="SVGID_7_" x="230.5" y="38.2" width="232" height="11"/>
					</defs>
					<clipPath id="SVGID_8_">
						<use xlink:href="#SVGID_7_"  style="overflow:visible;"/>
					</clipPath>
					
						<linearGradient id="SVGID_9_" gradientUnits="userSpaceOnUse" x1="-15.1508" y1="186.6087" x2="-14.1508" y2="186.6087" gradientTransform="matrix(214.793 0 0 -214.793 3493.918 40128.5508)">
						<stop  offset="0" style="stop-color:#FFFFFF"/>
						<stop  offset="0.25" style="stop-color:#FFFFFF"/>
						<stop  offset="0.5" style="stop-color:#FFFFFF"/>
						<stop  offset="0.75" style="stop-color:#FFFFFF"/>
						<stop  offset="0.9903" style="stop-color:#FFFFFF"/>
						<stop  offset="1" style="stop-color:#FFFFFF"/>
					</linearGradient>
					<polyline class="st5" points="239.6,45.3 454.4,45.3 454.4,47.3 239.6,47.3 					"/>
				</g>
			</g>
		</mask>
		<g class="st6">
			<g>
				
					<linearGradient id="SVGID_10_" gradientUnits="userSpaceOnUse" x1="-15.1508" y1="186.6087" x2="-14.1508" y2="186.6087" gradientTransform="matrix(214.793 0 0 -214.793 3493.918 40128.5508)">
					<stop  offset="0" style="stop-color:#C1912E"/>
					<stop  offset="6.261542e-02" style="stop-color:#C2922F"/>
					<stop  offset="0.1131" style="stop-color:#C59835"/>
					<stop  offset="0.1594" style="stop-color:#CBA142"/>
					<stop  offset="0.2031" style="stop-color:#D4AF56"/>
					<stop  offset="0.2447" style="stop-color:#E1C371"/>
					<stop  offset="0.25" style="stop-color:#E3C675"/>
					<stop  offset="0.3221" style="stop-color:#E4C773"/>
					<stop  offset="0.3794" style="stop-color:#E8C86B"/>
					<stop  offset="0.4316" style="stop-color:#EEC95B"/>
					<stop  offset="0.4804" style="stop-color:#F6CC43"/>
					<stop  offset="0.5" style="stop-color:#FACD34"/>
					<stop  offset="0.5266" style="stop-color:#F9D152"/>
					<stop  offset="0.5647" style="stop-color:#F8D76F"/>
					<stop  offset="0.6047" style="stop-color:#F6DB83"/>
					<stop  offset="0.6471" style="stop-color:#F5DE90"/>
					<stop  offset="0.6931" style="stop-color:#F5E098"/>
					<stop  offset="0.75" style="stop-color:#F5E09B"/>
					<stop  offset="0.7632" style="stop-color:#EFD890"/>
					<stop  offset="0.8019" style="stop-color:#E2C476"/>
					<stop  offset="0.8426" style="stop-color:#D8B562"/>
					<stop  offset="0.8855" style="stop-color:#D1AB54"/>
					<stop  offset="0.9323" style="stop-color:#CDA64C"/>
					<stop  offset="0.9903" style="stop-color:#CCA449"/>
					<stop  offset="1" style="stop-color:#CCA449"/>
				</linearGradient>
				<polyline class="st7" points="239.6,45.3 454.4,45.3 454.4,47.3 239.6,47.3 				"/>
			</g>
		</g>
		<defs>
			<filter id="Adobe_OpacityMaskFilter_2_" filterUnits="userSpaceOnUse" x="109.8" y="45.3" width="103.3" height="2">
				<feColorMatrix  type="matrix" values="1 0 0 0 0  0 1 0 0 0  0 0 1 0 0  0 0 0 1 0"/>
			</filter>
		</defs>
		<mask maskUnits="userSpaceOnUse" x="109.8" y="45.3" width="103.3" height="2" id="SVGID_11_">
			<g class="st8">
				<g>
					<defs>
						<rect id="SVGID_12_" x="100.7" y="38.2" width="121" height="11"/>
					</defs>
					<clipPath id="SVGID_13_">
						<use xlink:href="#SVGID_12_"  style="overflow:visible;"/>
					</clipPath>
					
						<linearGradient id="SVGID_14_" gradientUnits="userSpaceOnUse" x1="-15.1508" y1="186.6087" x2="-14.1508" y2="186.6087" gradientTransform="matrix(103.293 0 0 -103.293 1674.8127 19321.6777)">
						<stop  offset="0" style="stop-color:#FFFFFF"/>
						<stop  offset="0.25" style="stop-color:#FFFFFF"/>
						<stop  offset="0.5" style="stop-color:#FFFFFF"/>
						<stop  offset="0.75" style="stop-color:#FFFFFF"/>
						<stop  offset="0.9903" style="stop-color:#FFFFFF"/>
						<stop  offset="1" style="stop-color:#FFFFFF"/>
					</linearGradient>
					<polyline class="st9" points="109.8,45.3 213.1,45.3 213.1,47.3 109.8,47.3 					"/>
				</g>
			</g>
		</mask>
		<g class="st10">
			<g>
				
					<linearGradient id="SVGID_15_" gradientUnits="userSpaceOnUse" x1="-15.1508" y1="186.6087" x2="-14.1508" y2="186.6087" gradientTransform="matrix(103.293 0 0 -103.293 1674.8127 19321.6777)">
					<stop  offset="0" style="stop-color:#C1912E"/>
					<stop  offset="6.261542e-02" style="stop-color:#C2922F"/>
					<stop  offset="0.1131" style="stop-color:#C59835"/>
					<stop  offset="0.1594" style="stop-color:#CBA142"/>
					<stop  offset="0.2031" style="stop-color:#D4AF56"/>
					<stop  offset="0.2447" style="stop-color:#E1C371"/>
					<stop  offset="0.25" style="stop-color:#E3C675"/>
					<stop  offset="0.3221" style="stop-color:#E4C773"/>
					<stop  offset="0.3794" style="stop-color:#E8C86B"/>
					<stop  offset="0.4316" style="stop-color:#EEC95B"/>
					<stop  offset="0.4804" style="stop-color:#F6CC43"/>
					<stop  offset="0.5" style="stop-color:#FACD34"/>
					<stop  offset="0.5266" style="stop-color:#F9D152"/>
					<stop  offset="0.5647" style="stop-color:#F8D76F"/>
					<stop  offset="0.6047" style="stop-color:#F6DB83"/>
					<stop  offset="0.6471" style="stop-color:#F5DE90"/>
					<stop  offset="0.6931" style="stop-color:#F5E098"/>
					<stop  offset="0.75" style="stop-color:#F5E09B"/>
					<stop  offset="0.7632" style="stop-color:#EFD890"/>
					<stop  offset="0.8019" style="stop-color:#E2C476"/>
					<stop  offset="0.8426" style="stop-color:#D8B562"/>
					<stop  offset="0.8855" style="stop-color:#D1AB54"/>
					<stop  offset="0.9323" style="stop-color:#CDA64C"/>
					<stop  offset="0.9903" style="stop-color:#CCA449"/>
					<stop  offset="1" style="stop-color:#CCA449"/>
				</linearGradient>
				<polyline class="st11" points="109.8,45.3 213.1,45.3 213.1,47.3 109.8,47.3 				"/>
			</g>
		</g>
		<defs>
			<filter id="Adobe_OpacityMaskFilter_3_" filterUnits="userSpaceOnUse" x="0" y="31.7" width="452.4" height="132.6">
				<feColorMatrix  type="matrix" values="1 0 0 0 0  0 1 0 0 0  0 0 1 0 0  0 0 0 1 0"/>
			</filter>
		</defs>
		<mask maskUnits="userSpaceOnUse" x="0" y="31.7" width="452.4" height="132.6" id="SVGID_16_">
			<g class="st12">
				<g>
					<defs>
						<rect id="SVGID_17_" x="-23.5" y="-0.2" width="716" height="194"/>
					</defs>
					<clipPath id="SVGID_18_">
						<use xlink:href="#SVGID_17_"  style="overflow:visible;"/>
					</clipPath>
					
						<linearGradient id="SVGID_19_" gradientUnits="userSpaceOnUse" x1="-15.1508" y1="185.9647" x2="-14.1508" y2="185.9647" gradientTransform="matrix(163.526 -94.4115 -94.4115 -163.526 20088.6465 29174.1016)">
						<stop  offset="0" style="stop-color:#FFFFFF"/>
						<stop  offset="0.25" style="stop-color:#FFFFFF"/>
						<stop  offset="0.5" style="stop-color:#FFFFFF"/>
						<stop  offset="0.75" style="stop-color:#FFFFFF"/>
						<stop  offset="0.9903" style="stop-color:#FFFFFF"/>
						<stop  offset="1" style="stop-color:#FFFFFF"/>
					</linearGradient>
					<path class="st13" d="M77.7,137.9c20,3.7,49.4,16.8,73.6,16.5c7.1-0.1,13.2-1.5,19.8-5.3l4.8-0.3v2.8
						c-10.6,7.9-25.5,12.7-39.2,12.7c-28.8,0-66.1-22.4-84.7-22.4c-31.3,0-52-26.2-52-53.7C0,60,19.6,31.7,52.8,31.7
						c37.9,0,57,28.3,57,56.5C109.7,108.5,95.2,131.3,77.7,137.9z M65.8,34.6c-4.1-0.7-8.5-1.1-13-1.1c-31.9,0-51.1,27.6-51.1,54.7
						c0,26.3,19.6,51.6,50.2,51.4c19.9-0.1,54.7,21.2,82.3,23v-3.6c12.7-0.2,25.5,0.5,36.2-6.3l0.2-1.6c-8.9,5.3-13.2,5.4-20,5.7
						c-6.7,0.2-13.2-0.7-19.5-1.8v3.1c-22.2-2.2-40.8-13-59.7-18V135c14.9-4.5,29.8-23.1,29.8-45.1c0-17.7-8.3-50.2-35.4-54.1V34.6z
						 M54.9,38c22.5,0.7,39.5,26.4,39.5,49.7c0,24-13,47.9-40.3,47.9c-1.7,0-3.4-0.1-5-0.2v1.7c-24.7-2.4-39.7-18.3-39.7-49.1
						c0-22.4,12.3-52.1,45.5-52.1V38z M53.9,134c21.7,0,38.5-22.5,38.5-45.4c0-23-17.1-48.8-38.8-48.8s-35,25.8-35,48.8
						C18.6,111.3,35.2,134,53.9,134z M193.2,114.3c0,16.6-18.1,27-36.7,27c-16.1,0-37.8-7.7-37.7-27.1l0.1-13.1
						c0-10.4-0.2-20.7-1.1-31c-0.3-4-2.4-7-6.8-9.5v-2.4c5.4,0.3,11,0.6,16.3,0.6c5,0,9.9-0.2,14.8-0.6v2.4c-4.6,1.9-6,5.7-6.7,9.5
						c-1.5,9.2-1.5,19.5-1.5,31c0,3.9,0.2,8.5,0.2,13.1c0,9.3,12.6,19.3,22.1,19.3c10.1,0,23.6-7.4,24.2-19.3
						c0.2-4.3,0.2-8.7,0.2-13.1c0-10.4-0.2-20.7-1.1-31c-0.3-4-2.4-7-6.8-9.5v-2.4c5.4,0.3,8,0.6,13.4,0.6c5,0,9.9-0.2,14.8-0.6v2.4
						c-4.6,1.9-6,5.7-6.7,9.5c-1.5,9.2-1.5,19.5-1.5,31C192.8,104.9,193.2,109.5,193.2,114.3z M152.8,137.5
						c-11.9-1-25.4-11.8-25.4-23.3V67.7c2.3-4.4,6.9-6.1,11.8-7.9c-4.1,0.6-8.3,0.8-12.6,0.8c-4.3,0-8.6-0.2-12.9-0.6
						c4.2,2.3,6.2,5.9,6.5,10c0.5,10,0.7,19.7,0.7,29.6c0,4.9-0.1,9.7-0.1,14.6c0,14.7,11.7,22.2,32,25.5V137.5z M186.3,67.7
						c2.3-4.4,6.9-6.1,11.8-7.9c-4.1,0.6-8.3,0.8-12.6,0.8s-5.7-0.2-10-0.6c4.2,2.3,6.2,5.9,6.5,10c0.5,10,0.7,19.7,0.7,29.6v7.4
						c0,2.5,0,4.9-0.1,7.2c-0.6,9.7-11,21.1-27.6,21.2l-0.5,2.2c19.7-0.5,31.8-10.1,31.8-23.3V67.7z M265.3,72.8
						c-10.9-8.4-21.5-8-33.5-7.4c-1.6,0.2-2.2,2.9-2.4,4.5c-1.1,7.1-1.5,15.1-1.5,23.6h23c3.2,0,6.1-2.3,7.8-5h5.5
						c-0.9,3.7-1.4,7.5-1.4,11.2c0,2.4,0.2,4.6,0.6,6.9H258c-2-3.2-4.3-5-7.4-5h-22.6c0,7.6,0.9,15.1,1.9,22.9
						c1.4,6.9,6.9,8.2,15.1,8.2c8.4,0,21.4-3.6,27.5-13h5.2c2.2,0,1.8,1.8,1.1,3.4l-6.1,13.2c-1.6,2.5-17.7,4-24.1,4
						c-9.4,0-22.1-1.6-28.3-1.5c-5.1,0.1-10.2,0.2-15.3,0.8v-2.4c3.7-2.2,6.5-4.6,6.8-8.4c0.8-9.3,1.1-18.6,1.1-27.9
						c0-10.4-0.2-20.7-1.1-31c-0.3-4-2.4-7-6.8-9.5v-2.4c5.4,0.3,11,0.6,16.3,0.6c8.9,0,18-0.6,27-0.6c14.7,0,19.6,0.3,19.8,3.1
						l0.8,11.8L265.3,72.8z M226.8,62.6c6.5-0.3,12.6-0.5,19.3-0.1c0.3,0.2,0.8,1.1,0.8,1.5c8.4,0.1,13.9,2.7,18.3,7
						c0-2.7-0.9-5-2.3-7.1c0.3-0.8,0.5-2.3,0.5-3.5c-6.2-0.2-9.7-0.3-13.5-0.3c-5.7,0-11.9,0.2-29.3,0.6c-4.3,0-8.6-0.2-12.9-0.8V60
						c4.2,2.3,6.2,5.9,6.5,10c0.5,10,0.7,19.7,0.7,29.6s0,19.6-0.7,29.3c-0.3,5.1-3.2,6.8-5.7,8.6v0.5c5.1-1.4,12.9-4.1,12.9-7.7
						V67.7C222.5,64.5,224.4,63.9,226.8,62.6z M250.6,99.8c3.2,0,6.1,1.7,8,5.1c0.5-1.1,0.6-2,0.6-2.9c0-1.5-0.5-2.7-1.1-4.4
						c1.1-2.5,1.6-4.3,1.9-7.4c-2.7,3.7-5.5,5-9.1,5h-23.8c-0.7,0.8-1.2,1.5-1.2,2.4h17.4c0.5,0.7,0.7,1.5,0.7,2.3H250.6z
						 M233.4,132.8c0.3,1.4,1.9,3.1,2.6,3.3c1.8,0.6,4,0.8,6.5,0.8c8.2,0,22.1-2.2,26-5.3l6.9-9.4v-1h-1.7c-4,4-10.2,13.2-31,13.2
						C241.6,134.4,235.3,134.2,233.4,132.8z M340.8,72.8c-10.9-8.4-21.5-8-33.5-7.4c-1.6,0.2-2.2,2.9-2.4,4.5
						c-1.1,7.1-1.5,15.1-1.5,23.6h23c3.2,0,6.1-2.3,7.8-5h5.5c-0.9,3.7-1.4,7.5-1.4,11.2c0,2.4,0.2,4.6,0.6,6.9h-5.5
						c-2-3.2-4.3-5-7.4-5h-22.6c0,7.6,0.9,15.1,1.9,22.9c1.4,6.9,6.9,8.2,15.1,8.2c8.4,0,21.4-3.6,27.5-13h5.2
						c2.2,0,1.8,1.8,1.1,3.4l-6.1,13.2c-1.6,2.5-17.7,4-24.1,4c-9.4,0-22.1-1.6-28.3-1.5c-5.1,0.1-10.2,0.2-15.3,0.8v-2.4
						c3.7-2.2,6.5-4.6,6.8-8.4c0.8-9.3,1.1-18.6,1.1-27.9c0-10.4-0.2-20.7-1.1-31c-0.3-4-2.4-7-6.8-9.5v-2.4
						c5.4,0.3,11,0.6,16.3,0.6c8.9,0,18-0.6,27-0.6c14.7,0,19.6,0.3,19.8,3.1l0.8,11.8L340.8,72.8z M302.3,62.6
						c6.5-0.3,12.6-0.5,19.3-0.1c0.3,0.2,0.8,1.1,0.8,1.5c8.4,0.1,13.9,2.7,18.3,7c0-2.7-0.9-5-2.3-7.1c0.3-0.8,0.5-2.3,0.5-3.5
						c-6.2-0.2-9.7-0.3-13.5-0.3c-5.7,0-11.9,0.2-29.3,0.6c-4.3,0-8.6-0.2-12.9-0.8V60c4.2,2.3,6.2,5.9,6.5,10
						c0.5,10,0.7,19.7,0.7,29.6s0,19.6-0.7,29.3c-0.3,5.1-3.2,6.8-5.7,8.6v0.5c5.1-1.4,12.9-4.1,12.9-7.7V67.7
						C298,64.5,300,63.9,302.3,62.6z M326.1,99.8c3.2,0,6.1,1.7,8,5.1c0.5-1.1,0.6-2,0.6-2.9c0-1.5-0.5-2.7-1.1-4.4
						c1.1-2.5,1.6-4.3,1.9-7.4c-2.7,3.7-5.5,5-9.1,5h-23.8c-0.7,0.8-1.2,1.5-1.2,2.4h17.4c0.5,0.7,0.7,1.5,0.7,2.3H326.1z
						 M308.9,132.8c0.3,1.4,1.9,3.1,2.6,3.3c1.8,0.6,4,0.8,6.5,0.8c8.2,0,22.1-2.2,26-5.3l6.9-9.4v-1h-1.7c-4,4-10.2,13.2-31,13.2
						C317.2,134.4,310.8,134.2,308.9,132.8z M363.9,101c0-10.4-0.1-20.7-0.9-31c-0.2-4-2.9-7.6-7.5-9.5v-2.4
						c3.8,0.3,9.4,0.6,13.6,0.6l1.8,0.1c0.6,0.1,1.9,0.3,1.9,0.5l60.8,56.4v-2.7c0.1-4,0.1-7.9,0.1-11.9c0-10.4-0.1-20.7-0.9-31
						c-0.2-4-1.8-7-5.4-9.5v-2.4c4.4,0.3,8.8,0.6,13.1,0.6c4,0,7.8-0.2,11.8-0.6v2.4c-3.6,1.9-4.8,5.7-5.2,9.5
						c-1.2,9.2-1.2,19.5-1.2,31v38.6h-7.8L376,82.9l0.1,2.8c-0.1,4.9-0.1,10-0.1,15.3c0,8.2,0.1,19.7,1.1,27.9
						c0.5,4,2.6,6.3,5.3,8.4v2.4c-4.2-0.6-8.4-0.8-12.7-0.8c-4.1,0-8.2,0.2-12.2,0.8v-2.4c3.1-2.2,5.2-4.6,5.4-8.4
						C363.7,119.6,363.9,110.3,363.9,101z M371.7,60.7c-0.5,0-1.5,0-2.6-0.1c-3.5,0-8.3-0.2-11.3-0.6c4.5,1.9,7,5.9,7.1,10
						c0.3,10,0.6,19.7,0.6,29.6s0,19.6-0.6,29.3c-0.2,4.8-2.3,6.6-4.2,8.3c-0.1,0.1-0.2,0.2-0.3,0.3v0.5c4.1-1.4,10.2-4,10.2-7.6
						v-0.1V78.2c0-2.5,2.7-4.2,2.7-5.8v-0.5l-3.2-6.1V65L371.7,60.7z M440,60.6c-3.5,0-6.9-0.2-10.3-0.6c3.3,2.3,5,5.9,5.1,10
						c0.3,10,0.6,19.7,0.6,29.6c0,4.5,0,8.9-0.1,13.4c0,3.2-0.1,6-0.1,6.6l-0.3,5.4h-0.5c-0.5-0.2-1.8-0.7-1.9-0.8L378,74.3
						l-2.7-1.2v6.7l63.3,58.3c0.2,0.2,0.3,0.3,0.6,0.5h2.6v-1.2l-3.6-10.1c0,0-0.1-0.5-0.1-0.6c0-2.5,2.6-4.2,2.6-6.8V67.7
						c1.8-4.4,5.5-6.1,9.5-7.9C446.8,60.4,443.4,60.6,440,60.6z"/>
				</g>
			</g>
		</mask>
		<g class="st14">
			<g>
				
					<linearGradient id="SVGID_20_" gradientUnits="userSpaceOnUse" x1="-15.1508" y1="185.9647" x2="-14.1508" y2="185.9647" gradientTransform="matrix(163.526 -94.4115 -94.4115 -163.526 20088.6465 29174.1016)">
					<stop  offset="0" style="stop-color:#C1912E"/>
					<stop  offset="6.261542e-02" style="stop-color:#C2922F"/>
					<stop  offset="0.1131" style="stop-color:#C59835"/>
					<stop  offset="0.1594" style="stop-color:#CBA142"/>
					<stop  offset="0.2031" style="stop-color:#D4AF56"/>
					<stop  offset="0.2447" style="stop-color:#E1C371"/>
					<stop  offset="0.25" style="stop-color:#E3C675"/>
					<stop  offset="0.3221" style="stop-color:#E4C773"/>
					<stop  offset="0.3794" style="stop-color:#E8C86B"/>
					<stop  offset="0.4316" style="stop-color:#EEC95B"/>
					<stop  offset="0.4804" style="stop-color:#F6CC43"/>
					<stop  offset="0.5" style="stop-color:#FACD34"/>
					<stop  offset="0.5266" style="stop-color:#F9D152"/>
					<stop  offset="0.5647" style="stop-color:#F8D76F"/>
					<stop  offset="0.6047" style="stop-color:#F6DB83"/>
					<stop  offset="0.6471" style="stop-color:#F5DE90"/>
					<stop  offset="0.6931" style="stop-color:#F5E098"/>
					<stop  offset="0.75" style="stop-color:#F5E09B"/>
					<stop  offset="0.7632" style="stop-color:#EFD890"/>
					<stop  offset="0.8019" style="stop-color:#E2C476"/>
					<stop  offset="0.8426" style="stop-color:#D8B562"/>
					<stop  offset="0.8855" style="stop-color:#D1AB54"/>
					<stop  offset="0.9323" style="stop-color:#CDA64C"/>
					<stop  offset="0.9903" style="stop-color:#CCA449"/>
					<stop  offset="1" style="stop-color:#CCA449"/>
				</linearGradient>
				<path class="st15" d="M77.7,137.9c20,3.7,49.4,16.8,73.6,16.5c7.1-0.1,13.2-1.5,19.8-5.3l4.8-0.3v2.8
					c-10.6,7.9-25.5,12.7-39.2,12.7c-28.8,0-66.1-22.4-84.7-22.4c-31.3,0-52-26.2-52-53.7C0,60,19.6,31.7,52.8,31.7
					c37.9,0,57,28.3,57,56.5C109.7,108.5,95.2,131.3,77.7,137.9z M65.8,34.6c-4.1-0.7-8.5-1.1-13-1.1c-31.9,0-51.1,27.6-51.1,54.7
					c0,26.3,19.6,51.6,50.2,51.4c19.9-0.1,54.7,21.2,82.3,23v-3.6c12.7-0.2,25.5,0.5,36.2-6.3l0.2-1.6c-8.9,5.3-13.2,5.4-20,5.7
					c-6.7,0.2-13.2-0.7-19.5-1.8v3.1c-22.2-2.2-40.8-13-59.7-18V135c14.9-4.5,29.8-23.1,29.8-45.1c0-17.7-8.3-50.2-35.4-54.1V34.6z
					 M54.9,38c22.5,0.7,39.5,26.4,39.5,49.7c0,24-13,47.9-40.3,47.9c-1.7,0-3.4-0.1-5-0.2v1.7c-24.7-2.4-39.7-18.3-39.7-49.1
					c0-22.4,12.3-52.1,45.5-52.1V38z M53.9,134c21.7,0,38.5-22.5,38.5-45.4c0-23-17.1-48.8-38.8-48.8s-35,25.8-35,48.8
					C18.6,111.3,35.2,134,53.9,134z M193.2,114.3c0,16.6-18.1,27-36.7,27c-16.1,0-37.8-7.7-37.7-27.1l0.1-13.1
					c0-10.4-0.2-20.7-1.1-31c-0.3-4-2.4-7-6.8-9.5v-2.4c5.4,0.3,11,0.6,16.3,0.6c5,0,9.9-0.2,14.8-0.6v2.4c-4.6,1.9-6,5.7-6.7,9.5
					c-1.5,9.2-1.5,19.5-1.5,31c0,3.9,0.2,8.5,0.2,13.1c0,9.3,12.6,19.3,22.1,19.3c10.1,0,23.6-7.4,24.2-19.3
					c0.2-4.3,0.2-8.7,0.2-13.1c0-10.4-0.2-20.7-1.1-31c-0.3-4-2.4-7-6.8-9.5v-2.4c5.4,0.3,8,0.6,13.4,0.6c5,0,9.9-0.2,14.8-0.6v2.4
					c-4.6,1.9-6,5.7-6.7,9.5c-1.5,9.2-1.5,19.5-1.5,31C192.8,104.9,193.2,109.5,193.2,114.3z M152.8,137.5
					c-11.9-1-25.4-11.8-25.4-23.3V67.7c2.3-4.4,6.9-6.1,11.8-7.9c-4.1,0.6-8.3,0.8-12.6,0.8c-4.3,0-8.6-0.2-12.9-0.6
					c4.2,2.3,6.2,5.9,6.5,10c0.5,10,0.7,19.7,0.7,29.6c0,4.9-0.1,9.7-0.1,14.6c0,14.7,11.7,22.2,32,25.5V137.5z M186.3,67.7
					c2.3-4.4,6.9-6.1,11.8-7.9c-4.1,0.6-8.3,0.8-12.6,0.8s-5.7-0.2-10-0.6c4.2,2.3,6.2,5.9,6.5,10c0.5,10,0.7,19.7,0.7,29.6v7.4
					c0,2.5,0,4.9-0.1,7.2c-0.6,9.7-11,21.1-27.6,21.2l-0.5,2.2c19.7-0.5,31.8-10.1,31.8-23.3V67.7z M248.2,58.1
					c14.7,0,19.6,0.3,19.8,3.1l0.8,11.8l-3.5-0.1c-10.9-8.4-21.5-8-33.5-7.4c-1.6,0.2-2.2,2.9-2.4,4.5c-1.1,7.1-1.5,15.1-1.5,23.6
					h23c3.2,0,6.1-2.3,7.8-5h5.5c-0.9,3.7-1.4,7.5-1.4,11.2c0,2.4,0.2,4.6,0.6,6.9H258c-2-3.2-4.3-5-7.4-5h-22.6
					c0,7.6,0.9,15.1,1.9,22.9c1.4,6.9,6.9,8.2,15.1,8.2c8.4,0,21.4-3.6,27.5-13h5.2c2.2,0,1.8,1.8,1.1,3.4l-6.1,13.2
					c-1.6,2.5-17.7,4-24.1,4c-9.4,0-22.1-1.6-28.3-1.5c-5.1,0.1-10.2,0.2-15.3,0.8v-2.4c3.7-2.2,6.5-4.6,6.8-8.4
					c0.8-9.3,1.1-18.6,1.1-27.9c0-10.4-0.2-20.7-1.1-31c-0.3-4-2.4-7-6.8-9.5v-2.4 M226.8,62.6c6.5-0.3,12.6-0.5,19.3-0.1
					c0.3,0.2,0.8,1.1,0.8,1.5c8.4,0.1,13.9,2.7,18.3,7c0-2.7-0.9-5-2.3-7.1c0.3-0.8,0.5-2.3,0.5-3.5c-6.2-0.2-9.7-0.3-13.5-0.3
					c-5.7,0-11.9,0.2-29.3,0.6c-4.3,0-8.6-0.2-12.9-0.8V60c4.2,2.3,6.2,5.9,6.5,10c0.5,10,0.7,19.7,0.7,29.6s0,19.6-0.7,29.3
					c-0.3,5.1-3.2,6.8-5.7,8.6v0.5c5.1-1.4,12.9-4.1,12.9-7.7V67.7C222.5,64.5,224.4,63.9,226.8,62.6z M250.6,99.8
					c3.2,0,6.1,1.7,8,5.1c0.5-1.1,0.6-2,0.6-2.9c0-1.5-0.5-2.7-1.1-4.4c1.1-2.5,1.6-4.3,1.9-7.4c-2.7,3.7-5.5,5-9.1,5h-23.8
					c-0.7,0.8-1.2,1.5-1.2,2.4h17.4c0.5,0.7,0.7,1.5,0.7,2.3H250.6z M233.4,132.8c0.3,1.4,1.9,3.1,2.6,3.3c1.8,0.6,4,0.8,6.5,0.8
					c8.2,0,22.1-2.2,26-5.3l6.9-9.4v-1h-1.7c-4,4-10.2,13.2-31,13.2C241.6,134.4,235.3,134.2,233.4,132.8z M340.8,72.8
					c-10.9-8.4-21.5-8-33.5-7.4c-1.6,0.2-2.2,2.9-2.4,4.5c-1.1,7.1-1.5,15.1-1.5,23.6h23c3.2,0,6.1-2.3,7.8-5h5.5
					c-0.9,3.7-1.4,7.5-1.4,11.2c0,2.4,0.2,4.6,0.6,6.9h-5.5c-2-3.2-4.3-5-7.4-5h-22.6c0,7.6,0.9,15.1,1.9,22.9
					c1.4,6.9,6.9,8.2,15.1,8.2c8.4,0,21.4-3.6,27.5-13h5.2c2.2,0,1.8,1.8,1.1,3.4l-6.1,13.2c-1.6,2.5-17.7,4-24.1,4
					c-9.4,0-22.1-1.6-28.3-1.5c-5.1,0.1-10.2,0.2-15.3,0.8v-2.4c3.7-2.2,6.5-4.6,6.8-8.4c0.8-9.3,1.1-18.6,1.1-27.9
					c0-10.4-0.2-20.7-1.1-31c-0.3-4-2.4-7-6.8-9.5v-2.4c5.4,0.3,11,0.6,16.3,0.6c8.9,0,18-0.6,27-0.6c14.7,0,19.6,0.3,19.8,3.1
					l0.8,11.8L340.8,72.8z M302.3,62.6c6.5-0.3,12.6-0.5,19.3-0.1c0.3,0.2,0.8,1.1,0.8,1.5c8.4,0.1,13.9,2.7,18.3,7
					c0-2.7-0.9-5-2.3-7.1c0.3-0.8,0.5-2.3,0.5-3.5c-6.2-0.2-9.7-0.3-13.5-0.3c-5.7,0-11.9,0.2-29.3,0.6c-4.3,0-8.6-0.2-12.9-0.8V60
					c4.2,2.3,6.2,5.9,6.5,10c0.5,10,0.7,19.7,0.7,29.6s0,19.6-0.7,29.3c-0.3,5.1-3.2,6.8-5.7,8.6v0.5c5.1-1.4,12.9-4.1,12.9-7.7
					V67.7C298,64.5,300,63.9,302.3,62.6z M326.1,99.8c3.2,0,6.1,1.7,8,5.1c0.5-1.1,0.6-2,0.6-2.9c0-1.5-0.5-2.7-1.1-4.4
					c1.1-2.5,1.6-4.3,1.9-7.4c-2.7,3.7-5.5,5-9.1,5h-23.8c-0.7,0.8-1.2,1.5-1.2,2.4h17.4c0.5,0.7,0.7,1.5,0.7,2.3H326.1z
					 M308.9,132.8c0.3,1.4,1.9,3.1,2.6,3.3c1.8,0.6,4,0.8,6.5,0.8c8.2,0,22.1-2.2,26-5.3l6.9-9.4v-1h-1.7c-4,4-10.2,13.2-31,13.2
					C317.2,134.4,310.8,134.2,308.9,132.8z M363.9,101c0-10.4-0.1-20.7-0.9-31c-0.2-4-2.9-7.6-7.5-9.5v-2.4
					c3.8,0.3,9.4,0.6,13.6,0.6l1.8,0.1c0.6,0.1,1.9,0.3,1.9,0.5l60.8,56.4v-2.7c0.1-4,0.1-7.9,0.1-11.9c0-10.4-0.1-20.7-0.9-31
					c-0.2-4-1.8-7-5.4-9.5v-2.4c4.4,0.3,8.8,0.6,13.1,0.6c4,0,7.8-0.2,11.8-0.6v2.4c-3.6,1.9-4.8,5.7-5.2,9.5
					c-1.2,9.2-1.2,19.5-1.2,31v38.6h-7.8L376,82.9l0.1,2.8c-0.1,4.9-0.1,10-0.1,15.3c0,8.2,0.1,19.7,1.1,27.9c0.5,4,2.6,6.3,5.3,8.4
					v2.4c-4.2-0.6-8.4-0.8-12.7-0.8c-4.1,0-8.2,0.2-12.2,0.8v-2.4c3.1-2.2,5.2-4.6,5.4-8.4C363.7,119.6,363.9,110.3,363.9,101z
					 M371.7,60.7c-0.5,0-1.5,0-2.6-0.1c-3.5,0-8.3-0.2-11.3-0.6c4.5,1.9,7,5.9,7.1,10c0.3,10,0.6,19.7,0.6,29.6s0,19.6-0.6,29.3
					c-0.2,4.8-2.3,6.6-4.2,8.3c-0.1,0.1-0.2,0.2-0.3,0.3v0.5c4.1-1.4,10.2-4,10.2-7.6v-0.1V78.2c0-2.5,2.7-4.2,2.7-5.8v-0.5
					l-3.2-6.1V65L371.7,60.7z M440,60.6c-3.5,0-6.9-0.2-10.3-0.6c3.3,2.3,5,5.9,5.1,10c0.3,10,0.6,19.7,0.6,29.6
					c0,4.5,0,8.9-0.1,13.4c0,3.2-0.1,6-0.1,6.6l-0.3,5.4h-0.5c-0.5-0.2-1.8-0.7-1.9-0.8L378,74.3l-2.7-1.2v6.7l63.3,58.3
					c0.2,0.2,0.3,0.3,0.6,0.5h2.6v-1.2l-3.6-10.1c0,0-0.1-0.5-0.1-0.6c0-2.5,2.6-4.2,2.6-6.8V67.7c1.8-4.4,5.5-6.1,9.5-7.9
					C446.8,60.4,443.4,60.6,440,60.6z"/>
			</g>
		</g>
		<defs>
			<filter id="Adobe_OpacityMaskFilter_4_" filterUnits="userSpaceOnUse" x="110.9" y="0" width="235" height="42.9">
				<feColorMatrix  type="matrix" values="1 0 0 0 0  0 1 0 0 0  0 0 1 0 0  0 0 0 1 0"/>
			</filter>
		</defs>
		<mask maskUnits="userSpaceOnUse" x="110.9" y="0" width="235" height="42.9" id="SVGID_21_">
			<g class="st16">
				<g>
					<defs>
						<rect id="SVGID_22_" x="101.3" y="-24.5" width="382" height="84"/>
					</defs>
					<clipPath id="SVGID_23_">
						<use xlink:href="#SVGID_22_"  style="overflow:visible;"/>
					</clipPath>
					
						<linearGradient id="SVGID_24_" gradientUnits="userSpaceOnUse" x1="-15.1508" y1="186.3894" x2="-14.1508" y2="186.3894" gradientTransform="matrix(112.716 -65.0767 -65.0767 -112.716 13972.7803 20093.9004)">
						<stop  offset="0" style="stop-color:#FFFFFF"/>
						<stop  offset="0.25" style="stop-color:#FFFFFF"/>
						<stop  offset="0.5" style="stop-color:#FFFFFF"/>
						<stop  offset="0.75" style="stop-color:#FFFFFF"/>
						<stop  offset="0.9903" style="stop-color:#FFFFFF"/>
						<stop  offset="1" style="stop-color:#FFFFFF"/>
					</linearGradient>
					<path class="st17" d="M114.2,19.6c0-4.5-0.1-8.9-0.5-13.3c-0.1-1.7-1-3-2.9-4.1v-1c2.3,0.1,4.7,0.2,7,0.2
						c3.8,0,8.5-0.2,12.4-0.2c6.3,0,8.4,0.1,8.5,1.3l0.3,5l-1.5,0c-4.7-3.6-10-3.4-15.2-3.2c-0.7,0.1-0.9,1.3-1,1.9
						c-0.5,3.1-0.6,6.5-0.6,10.1h10.7c1.4,0,2.6-1,3.3-2.1h2.4c-0.4,1.6-0.6,3.2-0.6,4.8c0,1,0.1,2,0.2,3h-2.4
						c-0.9-1.4-1.8-2.1-3.2-2.1h-10.5c0,1.6,0.1,3.2,0.6,11.6c0.2,1.7,3.7,3,6,3.6v1c-2.3-0.2-6.4-0.3-8.6-0.3
						c-2.2,0-5.7,0.1-7.9,0.3v-1c1.6-0.9,2.8-2,2.9-3.6C114,29.2,114.1,26.9,114.2,19.6z M120.2,3.1c2.8-0.1,6.2-0.2,9.1,0
						c0.1,0.1,0.3,0.5,0.3,0.6c3.6,0,6,1.2,7.9,3c0-1.2-0.4-2.1-1-3.1c0.1-0.3,0.2-1,0.2-1.5C134,2,132.5,2,130.9,2
						c-2.4,0-5.9,0.1-13.4,0.2c-1.8,0-3.7-0.1-5.5-0.3V2c1.8,1,2.7,2.5,2.8,4.3c0.2,4.3,0.3,8.4,0.3,12.7c0,1.9,0,3.8-0.3,12.6
						c-0.1,2.2-1.4,2.9-2.4,3.7v0.2c2.2-0.6,5.5-1.7,5.5-3.3V5.3C118.4,3.9,119.2,3.6,120.2,3.1z M131.2,19c1.4,0,2.6,0.7,3.4,2.2
						c0.2-0.5,0.2-0.9,0.2-1.3c0-0.6-0.2-1.2-0.5-1.9c0.5-1.1,0.7-1.8,0.8-3.2c-1.2,1.6-2.4,2.1-3.9,2.1h-11c-0.3,0.3-0.5,0.6-0.5,1
						h8.3c0.2,0.3,0.3,0.6,0.3,1H131.2z M162.3,0.5c14.1,0,22.4,8.2,22.4,18.2S174.7,37,162.3,37s-22.4-8.2-22.4-18.2
						S149.9,0.5,162.3,0.5z M167.1,1.7c-1.6-0.3-3.2-0.5-4.9-0.5c-11.9,0-21.6,7.8-21.6,17.5c0,9.4,9.1,17,20.6,17.4V35h1
						c8.9,0,18.8-4.9,18.8-15.7c0-6.3-3.8-15.4-13.9-17.1V1.7z M163.1,3.2c8.4,0.3,15.1,7,15.1,15.4c0,8.5-5.5,15.4-15.7,15.4
						c-0.6,0-1.3,0-1.8-0.1v0.7c-9.2-1-16.6-5-16.6-16c0-8,6.7-16.4,19.1-16.4V3.2z M162.3,33.3c8.1,0,14.9-6.3,14.9-14.5
						s-6.6-14.9-14.7-14.9s-14.7,6.7-14.7,14.9C147.9,27,155.4,33.3,162.3,33.3z M209.9,20.2l13.6,15.5c1.8,1.8,5.2,4.4,7,4.4
						c1.2,0,1.9-0.2,2.8-0.7h0.4v0.9c-1.4,1.8-4,2.6-6.4,2.6c-3,0-6.6-0.6-8.6-2.8L201,20.7c-2.4,0-4-0.4-4.7-0.7
						c0,1.6-0.2,3.1,0.3,11.5c0.2,1.7,3.7,3,6,3.6v1c-2.3-0.2-6.4-0.3-8.6-0.3c-2.2,0-5.7,0.1-7.9,0.3v-1c1.6-0.9,2.8-2,2.9-3.6
						c0.2-2.3,0.3-4.6,0.5-11.9c0-4.5-0.1-8.9-0.5-13.3c-0.1-1.7-1-3-2.9-4.1v-1c2.3,0.1,4.7,0.2,7,0.2l11.1-0.8
						c7.8,0,12.2,5.1,12.2,10.3C216.5,15,214.3,18.2,209.9,20.2z M195.6,3.1c1.9-0.1,4.4-0.5,6.6-0.5v0.5c5.2,0.1,7.3,4.4,7.3,7.9
						c0,3.7-0.8,7.4-7.5,7.4c-1.1,0-5.1-0.1-6.1-0.6c-0.3,0.3-0.5,0.4-0.5,0.8c1.2,0.6,4.5,1,5.8,1l0.2,0.3l17.8,19.6
						c2.1,2,5.3,3,8.2,3c1,0,2-0.3,3-0.9l0-0.5c-0.8,0.4-1.8,0.6-2.7,0.4c-2.6-0.4-4.9-2.1-6.7-4l-13.8-15.7l-0.3-0.3v-0.7
						c0-0.8,0.2-2,1-2.4l0.9-0.5v0c2.7-1.7,4-4.2,4-7.1c0-3.4-1.9-7.1-5.9-8.2V1.6c-0.6-0.1-1.2-0.1-2.2-0.1
						c-1.8,0-4.9,0.2-11.7,0.7c-1.8,0-3.7-0.1-5.5-0.3V2c1.8,1,2.7,2.5,2.8,4.3c0.2,4.3,0.3,8.4,0.3,12.7c0,1.9,0,3.8-0.3,12.6
						c-0.1,2.2-1.4,2.9-2.4,3.7v0.2c2.2-0.6,5.5-1.7,5.5-3.3V5.3C193.7,3.9,194.5,3.6,195.6,3.1z M202,17.7c6.1,0,6.8-3.3,6.8-6.7
						c0-3.2-1.7-7.1-6.7-7.2c-1.4,0-3.2,0.2-4.5,0.5c-0.7,0.1-0.9,1.3-1,1.9c-0.5,3.1-0.4,7.1-0.4,10.8
						C197.1,17.5,201,17.7,202,17.7z M257.6,4.9h-7.7c-1.3,0-4.1,1.6-5.6,2.9h-1.8V6.9c0.4-0.7,0.8-1.4,1.3-2.1
						c0.9-1.6,1.6-3.2,1.9-4.8h2.4c0,1.2,1.6,1.4,3,1.4h23.7c1.4,0,2.9-0.2,4.1-1.4h2v0.7c-0.8,1.4-1.5,2.8-1.9,4.1
						c-0.4,1-0.6,1.5-0.9,2.5h-2.4c-0.4-1.4-1-2.4-2.3-2.4h-7.5c-0.1,0.5-0.3,1-0.3,1.4c-0.6,3.9-0.6,8.3-0.6,13.3
						c0,3.5,0.1,8.4,0.6,11.9c0.2,1.7,1.4,2.7,2.9,3.6v1c-2.3-0.2-4.5-0.3-6.8-0.3c-2.2,0-4.4,0.1-6.6,0.3v-1c1.6-0.9,2.8-2,2.9-3.6
						c0.3-4,0.5-8,0.5-11.9c0-4.5-0.1-8.9-0.5-13.3C257.9,5.8,257.8,5.3,257.6,4.9z M251.8,4c0.1-0.3,0.5-0.7,0.9-1h5.5
						c1.4,5.1,1.1,10.6,1.1,15.9c0,4.2,0,8.4-0.3,12.6c-0.1,2.2-1.4,2.9-2.4,3.7v0.2c2.2-0.6,5.5-1.7,5.5-3.3V5.3
						c0.4-0.9,1.2-1.7,2-2.2h8c0.5,0.2,0.5,0.6,0.4,1h1.1c1.4,0,2.5,1.2,2.7,2.6c0.4-0.5,0.5-0.9,0.7-1.3c0.2-0.6,0.1-0.8,0.1-1.6
						c0.9-1.1,1.3-1.8,1.9-3.2c-1.7,1.6-3.1,1.4-4.6,1.4h-23.9c-1.5,0-3.2,0.2-3.4-1.4c-0.5,1.3-0.6,2.1-0.7,3.2
						c-0.8,0.7-1.3,1.3-1.6,1.9c-0.3,0.4-0.2,0.5-0.3,1c1.7-1.5,3.9-2.7,5.2-2.7H251.8z M302.1,19.6c-3.6-0.2-7.3-0.4-10.9-0.4
						c-3.8,0-7.6,0.1-11.4,0.4c0,3.5,0.1,8.4,0.6,11.9c0.2,1.7,1.4,2.7,2.9,3.6v1c-2.3-0.2-4.5-0.3-6.8-0.3c-2.2,0-4.4,0.1-6.6,0.3
						v-1c1.6-0.9,2.8-2,2.9-3.6c0.3-4,0.5-8,0.5-11.9c0-3.5,0.4-8.6-2.7-10.5v-1c2.3,0.1,4,0.2,6.3,0.2c2.1,0,3-0.1,5.1-0.2v1
						c-2.7,1.3-2.2,4.9-2.3,7.1c3.8,0.1,7.7,0.2,11.5,0.2c3.5,0,7.1-0.1,10.7-0.2c0-3.3-0.1-6.6-0.4-9.9c-0.1-1.7-1-3-2.9-4.1v-1
						c2.3,0.1,4.7,0.2,7,0.2c2.1,0,4.2-0.1,6.4-0.2v1c-2,0.8-2.6,2.4-2.9,4.1c-0.6,3.9-0.6,8.3-0.6,13.3c0,3.5,0.1,8.4,0.6,11.9
						c0.2,1.7,1.4,2.7,2.9,3.6v1c-2.3-0.2-4.5-0.3-6.8-0.3c-2.2,0-4.4,0.1-6.6,0.3v-1c1.6-0.9,2.8-2,2.9-3.6
						C301.9,27.5,302.1,23.5,302.1,19.6z M276.7,9.1c-1.8,0-3-0.1-4.9-0.2c2.6,1.6,2.4,6.9,2.4,10c0,4.2,0,8.4-0.3,12.6
						c-0.1,2-1.2,2.8-2.2,3.5c0,0-0.1,0.1-0.2,0.1v0.2c2.2-0.6,5.5-1.7,5.5-3.3V12.2c0.7-1.8,1.7-2.6,3.8-3.4
						C279.1,9,278.5,9.1,276.7,9.1z M305.4,2.2c-1.8,0-3.7-0.1-5.5-0.2c1.8,1,2.7,2.5,2.8,4.3c0.1,3.6,0.2,7.1,0.3,10.6
						c-4,0.1-8,0.2-12,0.2c-3.7,0-7.4-0.1-11.1-0.2c-0.3,0.4-0.5,0.8-0.6,1.3c3.8-0.2,7.7-0.3,11.5-0.3s7.6,0.1,11.4,0.3
						c0.4,0.2,0.7,0.6,0.7,1.1c0,4.1,0,8.2-0.3,12.2c-0.1,2-1.2,2.8-2.2,3.5c0,0-0.1,0.1-0.2,0.1v0.2c2.2-0.6,5.5-1.7,5.5-3.3V5.3
						c0.9-2,3-2.6,5-3.4C309,2.1,307.2,2.2,305.4,2.2z M339.9,7.5c-4.7-3.6-9.2-3.4-14.4-3.2c-0.7,0.1-0.9,1.3-1,1.9
						c-0.5,3.1-0.6,6.5-0.6,10.1h9.9c1.4,0,2.6-1,3.3-2.1h2.4c-0.4,1.6-0.6,3.2-0.6,4.8c0,1,0.1,2,0.2,3h-2.4
						c-0.9-1.4-1.8-2.1-3.2-2.1h-9.7c0,3.3,0.4,6.5,0.8,9.8c0.6,3,3,3.5,6.5,3.5c3.6,0,9.2-1.6,11.8-5.6h2.2c0.9,0,0.8,0.8,0.5,1.5
						l-2.6,5.7c-0.7,1.1-7.6,1.7-10.3,1.7c-4,0-9.5-0.7-12.1-0.6c-2.2,0-4.4,0.1-6.6,0.3v-1c1.6-0.9,2.8-2,2.9-3.6
						c0.3-4,0.5-8,0.5-11.9c0-4.5-0.1-8.9-0.5-13.3c-0.1-1.7-1-3-2.9-4.1v-1c2.3,0.1,4.7,0.2,7,0.2c3.8,0,7.7-0.2,11.5-0.2
						c6.3,0,8.4,0.1,8.5,1.3l0.3,5L339.9,7.5z M323.4,3.1c2.8-0.1,5.4-0.2,8.2,0c0.1,0.1,0.3,0.5,0.3,0.6c3.6,0,6,1.2,7.9,3
						c0-1.2-0.4-2.1-1-3.1c0.1-0.3,0.2-1,0.2-1.5C336.4,2,334.9,2,333.3,2c-2.4,0-5.1,0.1-12.6,0.2c-1.8,0-3.7-0.1-5.5-0.3V2
						c1.8,1,2.7,2.5,2.8,4.3c0.2,4.3,0.3,8.4,0.3,12.7s0,8.4-0.3,12.6c-0.1,2.2-1.4,2.9-2.4,3.7v0.2c2.2-0.6,5.5-1.7,5.5-3.3V5.3
						C321.5,3.9,322.3,3.6,323.4,3.1z M333.6,19c1.4,0,2.6,0.7,3.4,2.2c0.2-0.5,0.2-0.9,0.2-1.3c0-0.6-0.2-1.2-0.5-1.9
						c0.5-1.1,0.7-1.8,0.8-3.2c-1.2,1.6-2.4,2.1-3.9,2.1h-10.2c-0.3,0.3-0.5,0.6-0.5,1h7.5c0.2,0.3,0.3,0.6,0.3,1H333.6z
						 M326.2,33.2c0.1,0.6,0.8,1.3,1.1,1.4c0.8,0.2,1.7,0.3,2.8,0.3c3.5,0,9.5-0.9,11.2-2.3l3-4v-0.4h-0.7
						c-1.7,1.7-4.4,5.7-13.3,5.7C329.7,33.9,327,33.8,326.2,33.2z"/>
				</g>
			</g>
		</mask>
		<g class="st18">
			<g>
				
					<linearGradient id="SVGID_25_" gradientUnits="userSpaceOnUse" x1="-15.1508" y1="186.3894" x2="-14.1508" y2="186.3894" gradientTransform="matrix(112.716 -65.0767 -65.0767 -112.716 13972.7803 20093.9004)">
					<stop  offset="0" style="stop-color:#C1912E"/>
					<stop  offset="6.261542e-02" style="stop-color:#C2922F"/>
					<stop  offset="0.1131" style="stop-color:#C59835"/>
					<stop  offset="0.1594" style="stop-color:#CBA142"/>
					<stop  offset="0.2031" style="stop-color:#D4AF56"/>
					<stop  offset="0.2447" style="stop-color:#E1C371"/>
					<stop  offset="0.25" style="stop-color:#E3C675"/>
					<stop  offset="0.3221" style="stop-color:#E4C773"/>
					<stop  offset="0.3794" style="stop-color:#E8C86B"/>
					<stop  offset="0.4316" style="stop-color:#EEC95B"/>
					<stop  offset="0.4804" style="stop-color:#F6CC43"/>
					<stop  offset="0.5" style="stop-color:#FACD34"/>
					<stop  offset="0.5266" style="stop-color:#F9D152"/>
					<stop  offset="0.5647" style="stop-color:#F8D76F"/>
					<stop  offset="0.6047" style="stop-color:#F6DB83"/>
					<stop  offset="0.6471" style="stop-color:#F5DE90"/>
					<stop  offset="0.6931" style="stop-color:#F5E098"/>
					<stop  offset="0.75" style="stop-color:#F5E09B"/>
					<stop  offset="0.7632" style="stop-color:#EFD890"/>
					<stop  offset="0.8019" style="stop-color:#E2C476"/>
					<stop  offset="0.8426" style="stop-color:#D8B562"/>
					<stop  offset="0.8855" style="stop-color:#D1AB54"/>
					<stop  offset="0.9323" style="stop-color:#CDA64C"/>
					<stop  offset="0.9903" style="stop-color:#CCA449"/>
					<stop  offset="1" style="stop-color:#CCA449"/>
				</linearGradient>
				<path class="st19" d="M114.2,19.6c0-4.5-0.1-8.9-0.5-13.3c-0.1-1.7-1-3-2.9-4.1v-1c2.3,0.1,4.7,0.2,7,0.2
					c3.8,0,8.5-0.2,12.4-0.2c6.3,0,8.4,0.1,8.5,1.3l0.3,5l-1.5,0c-4.7-3.6-10-3.4-15.2-3.2c-0.7,0.1-0.9,1.3-1,1.9
					c-0.5,3.1-0.6,6.5-0.6,10.1h10.7c1.4,0,2.6-1,3.3-2.1h2.4c-0.4,1.6-0.6,3.2-0.6,4.8c0,1,0.1,2,0.2,3h-2.4
					c-0.9-1.4-1.8-2.1-3.2-2.1h-10.5c0,1.6,0.1,3.2,0.6,11.6c0.2,1.7,3.7,3,6,3.6v1c-2.3-0.2-6.4-0.3-8.6-0.3
					c-2.2,0-5.7,0.1-7.9,0.3v-1c1.6-0.9,2.8-2,2.9-3.6C114,29.2,114.1,26.9,114.2,19.6z M120.2,3.1c2.8-0.1,6.2-0.2,9.1,0
					c0.1,0.1,0.3,0.5,0.3,0.6c3.6,0,6,1.2,7.9,3c0-1.2-0.4-2.1-1-3.1c0.1-0.3,0.2-1,0.2-1.5C134,2,132.5,2,130.9,2
					c-2.4,0-5.9,0.1-13.4,0.2c-1.8,0-3.7-0.1-5.5-0.3V2c1.8,1,2.7,2.5,2.8,4.3c0.2,4.3,0.3,8.4,0.3,12.7c0,1.9,0,3.8-0.3,12.6
					c-0.1,2.2-1.4,2.9-2.4,3.7v0.2c2.2-0.6,5.5-1.7,5.5-3.3V5.3C118.4,3.9,119.2,3.6,120.2,3.1z M131.2,19c1.4,0,2.6,0.7,3.4,2.2
					c0.2-0.5,0.2-0.9,0.2-1.3c0-0.6-0.2-1.2-0.5-1.9c0.5-1.1,0.7-1.8,0.8-3.2c-1.2,1.6-2.4,2.1-3.9,2.1h-11c-0.3,0.3-0.5,0.6-0.5,1
					h8.3c0.2,0.3,0.3,0.6,0.3,1H131.2z M162.3,0.5c14.1,0,22.4,8.2,22.4,18.2S174.7,37,162.3,37s-22.4-8.2-22.4-18.2
					S149.9,0.5,162.3,0.5z M167.1,1.7c-1.6-0.3-3.2-0.5-4.9-0.5c-11.9,0-21.6,7.8-21.6,17.5c0,9.4,9.1,17,20.6,17.4V35h1
					c8.9,0,18.8-4.9,18.8-15.7c0-6.3-3.8-15.4-13.9-17.1V1.7z M163.1,3.2c8.4,0.3,15.1,7,15.1,15.4c0,8.5-5.5,15.4-15.7,15.4
					c-0.6,0-1.3,0-1.8-0.1v0.7c-9.2-1-16.6-5-16.6-16c0-8,6.7-16.4,19.1-16.4V3.2z M162.3,33.3c8.1,0,14.9-6.3,14.9-14.5
					s-6.6-14.9-14.7-14.9s-14.7,6.7-14.7,14.9C147.9,27,155.4,33.3,162.3,33.3z M209.9,20.2l13.6,15.5c1.8,1.8,5.2,4.4,7,4.4
					c1.2,0,1.9-0.2,2.8-0.7h0.4v0.9c-1.4,1.8-4,2.6-6.4,2.6c-3,0-6.6-0.6-8.6-2.8L201,20.7c-2.4,0-4-0.4-4.7-0.7
					c0,1.6-0.2,3.1,0.3,11.5c0.2,1.7,3.7,3,6,3.6v1c-2.3-0.2-6.4-0.3-8.6-0.3c-2.2,0-5.7,0.1-7.9,0.3v-1c1.6-0.9,2.8-2,2.9-3.6
					c0.2-2.3,0.3-4.6,0.5-11.9c0-4.5-0.1-8.9-0.5-13.3c-0.1-1.7-1-3-2.9-4.1v-1c2.3,0.1,4.7,0.2,7,0.2l11.1-0.8
					c7.8,0,12.2,5.1,12.2,10.3C216.5,15,214.3,18.2,209.9,20.2z M195.6,3.1c1.9-0.1,4.4-0.5,6.6-0.5v0.5c5.2,0.1,7.3,4.4,7.3,7.9
					c0,3.7-0.8,7.4-7.5,7.4c-1.1,0-5.1-0.1-6.1-0.6c-0.3,0.3-0.5,0.4-0.5,0.8c1.2,0.6,4.5,1,5.8,1l0.2,0.3l17.8,19.6
					c2.1,2,5.3,3,8.2,3c1,0,2-0.3,3-0.9l0-0.5c-0.8,0.4-1.8,0.6-2.7,0.4c-2.6-0.4-4.9-2.1-6.7-4l-13.8-15.7l-0.3-0.3v-0.7
					c0-0.8,0.2-2,1-2.4l0.9-0.5v0c2.7-1.7,4-4.2,4-7.1c0-3.4-1.9-7.1-5.9-8.2V1.6c-0.6-0.1-1.2-0.1-2.2-0.1c-1.8,0-4.9,0.2-11.7,0.7
					c-1.8,0-3.7-0.1-5.5-0.3V2c1.8,1,2.7,2.5,2.8,4.3c0.2,4.3,0.3,8.4,0.3,12.7c0,1.9,0,3.8-0.3,12.6c-0.1,2.2-1.4,2.9-2.4,3.7v0.2
					c2.2-0.6,5.5-1.7,5.5-3.3V5.3C193.7,3.9,194.5,3.6,195.6,3.1z M202,17.7c6.1,0,6.8-3.3,6.8-6.7c0-3.2-1.7-7.1-6.7-7.2
					c-1.4,0-3.2,0.2-4.5,0.5c-0.7,0.1-0.9,1.3-1,1.9c-0.5,3.1-0.4,7.1-0.4,10.8C197.1,17.5,201,17.7,202,17.7z M257.6,4.9h-7.7
					c-1.3,0-4.1,1.6-5.6,2.9h-1.8V6.9c0.4-0.7,0.8-1.4,1.3-2.1c0.9-1.6,1.6-3.2,1.9-4.8h2.4c0,1.2,1.6,1.4,3,1.4h23.7
					c1.4,0,2.9-0.2,4.1-1.4h2v0.7c-0.8,1.4-1.5,2.8-1.9,4.1c-0.4,1-0.6,1.5-0.9,2.5h-2.4c-0.4-1.4-1-2.4-2.3-2.4h-7.5
					c-0.1,0.5-0.3,1-0.3,1.4c-0.6,3.9-0.6,8.3-0.6,13.3c0,3.5,0.1,8.4,0.6,11.9c0.2,1.7,1.4,2.7,2.9,3.6v1c-2.3-0.2-4.5-0.3-6.8-0.3
					c-2.2,0-4.4,0.1-6.6,0.3v-1c1.6-0.9,2.8-2,2.9-3.6c0.3-4,0.5-8,0.5-11.9c0-4.5-0.1-8.9-0.5-13.3C257.9,5.8,257.8,5.3,257.6,4.9z
					 M251.8,4c0.1-0.3,0.5-0.7,0.9-1h5.5c1.4,5.1,1.1,10.6,1.1,15.9c0,4.2,0,8.4-0.3,12.6c-0.1,2.2-1.4,2.9-2.4,3.7v0.2
					c2.2-0.6,5.5-1.7,5.5-3.3V5.3c0.4-0.9,1.2-1.7,2-2.2h8c0.5,0.2,0.5,0.6,0.4,1h1.1c1.4,0,2.5,1.2,2.7,2.6
					c0.4-0.5,0.5-0.9,0.7-1.3c0.2-0.6,0.1-0.8,0.1-1.6c0.9-1.1,1.3-1.8,1.9-3.2c-1.7,1.6-3.1,1.4-4.6,1.4h-23.9
					c-1.5,0-3.2,0.2-3.4-1.4c-0.5,1.3-0.6,2.1-0.7,3.2c-0.8,0.7-1.3,1.3-1.6,1.9c-0.3,0.4-0.2,0.5-0.3,1c1.7-1.5,3.9-2.7,5.2-2.7
					H251.8z M302.1,19.6c-3.6-0.2-7.3-0.4-10.9-0.4c-3.8,0-7.6,0.1-11.4,0.4c0,3.5,0.1,8.4,0.6,11.9c0.2,1.7,1.4,2.7,2.9,3.6v1
					c-2.3-0.2-4.5-0.3-6.8-0.3c-2.2,0-4.4,0.1-6.6,0.3v-1c1.6-0.9,2.8-2,2.9-3.6c0.3-4,0.5-8,0.5-11.9c0-3.5,0.4-8.6-2.7-10.5v-1
					c2.3,0.1,4,0.2,6.3,0.2c2.1,0,3-0.1,5.1-0.2v1c-2.7,1.3-2.2,4.9-2.3,7.1c3.8,0.1,7.7,0.2,11.5,0.2c3.5,0,7.1-0.1,10.7-0.2
					c0-3.3-0.1-6.6-0.4-9.9c-0.1-1.7-1-3-2.9-4.1v-1c2.3,0.1,4.7,0.2,7,0.2c2.1,0,4.2-0.1,6.4-0.2v1c-2,0.8-2.6,2.4-2.9,4.1
					c-0.6,3.9-0.6,8.3-0.6,13.3c0,3.5,0.1,8.4,0.6,11.9c0.2,1.7,1.4,2.7,2.9,3.6v1c-2.3-0.2-4.5-0.3-6.8-0.3c-2.2,0-4.4,0.1-6.6,0.3
					v-1c1.6-0.9,2.8-2,2.9-3.6C301.9,27.5,302.1,23.5,302.1,19.6z M276.7,9.1c-1.8,0-3-0.1-4.9-0.2c2.6,1.6,2.4,6.9,2.4,10
					c0,4.2,0,8.4-0.3,12.6c-0.1,2-1.2,2.8-2.2,3.5c0,0-0.1,0.1-0.2,0.1v0.2c2.2-0.6,5.5-1.7,5.5-3.3V12.2c0.7-1.8,1.7-2.6,3.8-3.4
					C279.1,9,278.5,9.1,276.7,9.1z M305.4,2.2c-1.8,0-3.7-0.1-5.5-0.2c1.8,1,2.7,2.5,2.8,4.3c0.1,3.6,0.2,7.1,0.3,10.6
					c-4,0.1-8,0.2-12,0.2c-3.7,0-7.4-0.1-11.1-0.2c-0.3,0.4-0.5,0.8-0.6,1.3c3.8-0.2,7.7-0.3,11.5-0.3s7.6,0.1,11.4,0.3
					c0.4,0.2,0.7,0.6,0.7,1.1c0,4.1,0,8.2-0.3,12.2c-0.1,2-1.2,2.8-2.2,3.5c0,0-0.1,0.1-0.2,0.1v0.2c2.2-0.6,5.5-1.7,5.5-3.3V5.3
					c0.9-2,3-2.6,5-3.4C309,2.1,307.2,2.2,305.4,2.2z M339.9,7.5c-4.7-3.6-9.2-3.4-14.4-3.2c-0.7,0.1-0.9,1.3-1,1.9
					c-0.5,3.1-0.6,6.5-0.6,10.1h9.9c1.4,0,2.6-1,3.3-2.1h2.4c-0.4,1.6-0.6,3.2-0.6,4.8c0,1,0.1,2,0.2,3h-2.4
					c-0.9-1.4-1.8-2.1-3.2-2.1h-9.7c0,3.3,0.4,6.5,0.8,9.8c0.6,3,3,3.5,6.5,3.5c3.6,0,9.2-1.6,11.8-5.6h2.2c0.9,0,0.8,0.8,0.5,1.5
					l-2.6,5.7c-0.7,1.1-7.6,1.7-10.3,1.7c-4,0-9.5-0.7-12.1-0.6c-2.2,0-4.4,0.1-6.6,0.3v-1c1.6-0.9,2.8-2,2.9-3.6
					c0.3-4,0.5-8,0.5-11.9c0-4.5-0.1-8.9-0.5-13.3c-0.1-1.7-1-3-2.9-4.1v-1c2.3,0.1,4.7,0.2,7,0.2c3.8,0,7.7-0.2,11.5-0.2
					c6.3,0,8.4,0.1,8.5,1.3l0.3,5L339.9,7.5z M323.4,3.1c2.8-0.1,5.4-0.2,8.2,0c0.1,0.1,0.3,0.5,0.3,0.6c3.6,0,6,1.2,7.9,3
					c0-1.2-0.4-2.1-1-3.1c0.1-0.3,0.2-1,0.2-1.5C336.4,2,334.9,2,333.3,2c-2.4,0-5.1,0.1-12.6,0.2c-1.8,0-3.7-0.1-5.5-0.3V2
					c1.8,1,2.7,2.5,2.8,4.3c0.2,4.3,0.3,8.4,0.3,12.7s0,8.4-0.3,12.6c-0.1,2.2-1.4,2.9-2.4,3.7v0.2c2.2-0.6,5.5-1.7,5.5-3.3V5.3
					C321.5,3.9,322.3,3.6,323.4,3.1z M333.6,19c1.4,0,2.6,0.7,3.4,2.2c0.2-0.5,0.2-0.9,0.2-1.3c0-0.6-0.2-1.2-0.5-1.9
					c0.5-1.1,0.7-1.8,0.8-3.2c-1.2,1.6-2.4,2.1-3.9,2.1h-10.2c-0.3,0.3-0.5,0.6-0.5,1h7.5c0.2,0.3,0.3,0.6,0.3,1H333.6z M326.2,33.2
					c0.1,0.6,0.8,1.3,1.1,1.4c0.8,0.2,1.7,0.3,2.8,0.3c3.5,0,9.5-0.9,11.2-2.3l3-4v-0.4h-0.7c-1.7,1.7-4.4,5.7-13.3,5.7
					C329.7,33.9,327,33.8,326.2,33.2z"/>
			</g>
		</g>
	</g>
</g>
</svg>
